<?xml version="1.0" encoding="UTF-8" standalone="no"?>
<!DOCTYPE svg PUBLIC "-//W3C//DTD SVG 1.1//EN"
 "http://www.w3.org/Graphics/SVG/1.1/DTD/svg11.dtd">
<!-- Generated by graphviz version 2.36.0 (20140111.2315)
 -->
<!-- Title: %3 Pages: 1 -->
<svg width="776pt" height="476pt"
 viewBox="0.00 0.00 776.00 476.00" xmlns="http://www.w3.org/2000/svg" xmlns:xlink="http://www.w3.org/1999/xlink">
<g id="graph0" class="graph" transform="scale(1 1) rotate(0) translate(4 472)">
<title>%3</title>
<polygon fill="white" stroke="none" points="-4,4 -4,-472 772,-472 772,4 -4,4"/>
<!-- 1 in 1 -->
<g id="node1" class="node"><title>1 in 1</title>
<ellipse fill="lawngreen" stroke="lawngreen" cx="72" cy="-450" rx="18" ry="18"/>
<text text-anchor="middle" x="72" y="-446.3" font-family="Times,serif" font-size="14.00">1</text>
</g>
<!-- 2 in 1 -->
<g id="node2" class="node"><title>2 in 1</title>
<ellipse fill="lawngreen" stroke="lawngreen" cx="72" cy="-378" rx="18" ry="18"/>
<text text-anchor="middle" x="72" y="-374.3" font-family="Times,serif" font-size="14.00">2</text>
</g>
<!-- 1 in 1&#45;&gt;2 in 1 -->
<g id="edge1" class="edge"><title>1 in 1&#45;&gt;2 in 1</title>
<path fill="none" stroke="black" d="M72,-431.697C72,-420.846 72,-406.917 72,-396.104"/>
</g>
<!-- 3 in 1 -->
<g id="node3" class="node"><title>3 in 1</title>
<ellipse fill="lawngreen" stroke="lawngreen" cx="72" cy="-306" rx="18" ry="18"/>
<text text-anchor="middle" x="72" y="-302.3" font-family="Times,serif" font-size="14.00">3</text>
</g>
<!-- 2 in 1&#45;&gt;3 in 1 -->
<g id="edge2" class="edge"><title>2 in 1&#45;&gt;3 in 1</title>
<path fill="none" stroke="black" d="M72,-359.697C72,-348.846 72,-334.917 72,-324.104"/>
</g>
<!-- 4 in 1 -->
<g id="node4" class="node"><title>4 in 1</title>
<ellipse fill="none" stroke="black" cx="18" cy="-234" rx="18" ry="18"/>
<text text-anchor="middle" x="18" y="-230.3" font-family="Times,serif" font-size="14.00">4</text>
</g>
<!-- 3 in 1&#45;&gt;4 in 1 -->
<g id="edge3" class="edge"><title>3 in 1&#45;&gt;4 in 1</title>
<path fill="none" stroke="black" d="M61.3313,-291.17C51.8644,-278.898 38.1067,-261.064 28.6465,-248.801"/>
</g>
<!-- 5 in 1 -->
<g id="node5" class="node"><title>5 in 1</title>
<ellipse fill="lawngreen" stroke="lawngreen" cx="72" cy="-234" rx="18" ry="18"/>
<text text-anchor="middle" x="72" y="-230.3" font-family="Times,serif" font-size="14.00">5</text>
</g>
<!-- 3 in 1&#45;&gt;5 in 1 -->
<g id="edge4" class="edge"><title>3 in 1&#45;&gt;5 in 1</title>
<path fill="none" stroke="black" d="M72,-287.697C72,-276.846 72,-262.917 72,-252.104"/>
</g>
<!-- 6 in 1 -->
<g id="node6" class="node"><title>6 in 1</title>
<ellipse fill="none" stroke="black" cx="126" cy="-234" rx="18" ry="18"/>
<text text-anchor="middle" x="126" y="-230.3" font-family="Times,serif" font-size="14.00">6</text>
</g>
<!-- 3 in 1&#45;&gt;6 in 1 -->
<g id="edge5" class="edge"><title>3 in 1&#45;&gt;6 in 1</title>
<path fill="none" stroke="black" d="M82.6687,-291.17C92.1356,-278.898 105.893,-261.064 115.354,-248.801"/>
</g>
<!-- 7 in 1 -->
<g id="node7" class="node"><title>7 in 1</title>
<ellipse fill="none" stroke="black" cx="126" cy="-162" rx="18" ry="18"/>
<text text-anchor="middle" x="126" y="-158.3" font-family="Times,serif" font-size="14.00">7</text>
</g>
<!-- 6 in 1&#45;&gt;7 in 1 -->
<g id="edge6" class="edge"><title>6 in 1&#45;&gt;7 in 1</title>
<path fill="none" stroke="black" d="M126,-215.697C126,-204.846 126,-190.917 126,-180.104"/>
</g>
<!-- 2 in 2 -->
<g id="node8" class="node"><title>2 in 2</title>
<ellipse fill="lawngreen" stroke="lawngreen" cx="190" cy="-450" rx="18" ry="18"/>
<text text-anchor="middle" x="190" y="-446.3" font-family="Times,serif" font-size="14.00">2</text>
</g>
<!-- 1 in 2 -->
<g id="node9" class="node"><title>1 in 2</title>
<ellipse fill="lawngreen" stroke="lawngreen" cx="136" cy="-378" rx="18" ry="18"/>
<text text-anchor="middle" x="136" y="-374.3" font-family="Times,serif" font-size="14.00">1</text>
</g>
<!-- 2 in 2&#45;&gt;1 in 2 -->
<g id="edge7" class="edge"><title>2 in 2&#45;&gt;1 in 2</title>
<path fill="none" stroke="black" d="M179.331,-435.17C169.864,-422.898 156.107,-405.064 146.646,-392.801"/>
</g>
<!-- 3 in 2 -->
<g id="node10" class="node"><title>3 in 2</title>
<ellipse fill="lawngreen" stroke="lawngreen" cx="190" cy="-378" rx="18" ry="18"/>
<text text-anchor="middle" x="190" y="-374.3" font-family="Times,serif" font-size="14.00">3</text>
</g>
<!-- 2 in 2&#45;&gt;3 in 2 -->
<g id="edge8" class="edge"><title>2 in 2&#45;&gt;3 in 2</title>
<path fill="none" stroke="black" d="M190,-431.697C190,-420.846 190,-406.917 190,-396.104"/>
</g>
<!-- 5 in 2 -->
<g id="node12" class="node"><title>5 in 2</title>
<ellipse fill="lawngreen" stroke="lawngreen" cx="244" cy="-378" rx="18" ry="18"/>
<text text-anchor="middle" x="244" y="-374.3" font-family="Times,serif" font-size="14.00">5</text>
</g>
<!-- 2 in 2&#45;&gt;5 in 2 -->
<g id="edge10" class="edge"><title>2 in 2&#45;&gt;5 in 2</title>
<path fill="none" stroke="black" d="M200.669,-435.17C210.136,-422.898 223.893,-405.064 233.354,-392.801"/>
</g>
<!-- 4 in 2 -->
<g id="node11" class="node"><title>4 in 2</title>
<ellipse fill="none" stroke="black" cx="153" cy="-306" rx="18" ry="18"/>
<text text-anchor="middle" x="153" y="-302.3" font-family="Times,serif" font-size="14.00">4</text>
</g>
<!-- 3 in 2&#45;&gt;4 in 2 -->
<g id="edge9" class="edge"><title>3 in 2&#45;&gt;4 in 2</title>
<path fill="none" stroke="black" d="M181.972,-361.811C175.765,-350.07 167.215,-333.893 161.013,-322.159"/>
</g>
<!-- 6 in 2 -->
<g id="node13" class="node"><title>6 in 2</title>
<ellipse fill="none" stroke="black" cx="207" cy="-306" rx="18" ry="18"/>
<text text-anchor="middle" x="207" y="-302.3" font-family="Times,serif" font-size="14.00">6</text>
</g>
<!-- 3 in 2&#45;&gt;6 in 2 -->
<g id="edge11" class="edge"><title>3 in 2&#45;&gt;6 in 2</title>
<path fill="none" stroke="black" d="M194.029,-360.411C196.699,-349.414 200.193,-335.027 202.882,-323.956"/>
</g>
<!-- 7 in 2 -->
<g id="node14" class="node"><title>7 in 2</title>
<ellipse fill="none" stroke="black" cx="207" cy="-234" rx="18" ry="18"/>
<text text-anchor="middle" x="207" y="-230.3" font-family="Times,serif" font-size="14.00">7</text>
</g>
<!-- 6 in 2&#45;&gt;7 in 2 -->
<g id="edge12" class="edge"><title>6 in 2&#45;&gt;7 in 2</title>
<path fill="none" stroke="black" d="M207,-287.697C207,-276.846 207,-262.917 207,-252.104"/>
</g>
<!-- 3 in 3 -->
<g id="node15" class="node"><title>3 in 3</title>
<ellipse fill="lawngreen" stroke="lawngreen" cx="372" cy="-450" rx="18" ry="18"/>
<text text-anchor="middle" x="372" y="-446.3" font-family="Times,serif" font-size="14.00">3</text>
</g>
<!-- 2 in 3 -->
<g id="node17" class="node"><title>2 in 3</title>
<ellipse fill="lawngreen" stroke="lawngreen" cx="318" cy="-378" rx="18" ry="18"/>
<text text-anchor="middle" x="318" y="-374.3" font-family="Times,serif" font-size="14.00">2</text>
</g>
<!-- 3 in 3&#45;&gt;2 in 3 -->
<g id="edge14" class="edge"><title>3 in 3&#45;&gt;2 in 3</title>
<path fill="none" stroke="black" d="M361.331,-435.17C351.864,-422.898 338.107,-405.064 328.646,-392.801"/>
</g>
<!-- 4 in 3 -->
<g id="node18" class="node"><title>4 in 3</title>
<ellipse fill="none" stroke="black" cx="372" cy="-378" rx="18" ry="18"/>
<text text-anchor="middle" x="372" y="-374.3" font-family="Times,serif" font-size="14.00">4</text>
</g>
<!-- 3 in 3&#45;&gt;4 in 3 -->
<g id="edge15" class="edge"><title>3 in 3&#45;&gt;4 in 3</title>
<path fill="none" stroke="black" d="M372,-431.697C372,-420.846 372,-406.917 372,-396.104"/>
</g>
<!-- 6 in 3 -->
<g id="node20" class="node"><title>6 in 3</title>
<ellipse fill="none" stroke="black" cx="426" cy="-378" rx="18" ry="18"/>
<text text-anchor="middle" x="426" y="-374.3" font-family="Times,serif" font-size="14.00">6</text>
</g>
<!-- 3 in 3&#45;&gt;6 in 3 -->
<g id="edge17" class="edge"><title>3 in 3&#45;&gt;6 in 3</title>
<path fill="none" stroke="black" d="M382.669,-435.17C392.136,-422.898 405.893,-405.064 415.354,-392.801"/>
</g>
<!-- 1 in 3 -->
<g id="node16" class="node"><title>1 in 3</title>
<ellipse fill="lawngreen" stroke="lawngreen" cx="274" cy="-306" rx="18" ry="18"/>
<text text-anchor="middle" x="274" y="-302.3" font-family="Times,serif" font-size="14.00">1</text>
</g>
<!-- 2 in 3&#45;&gt;1 in 3 -->
<g id="edge13" class="edge"><title>2 in 3&#45;&gt;1 in 3</title>
<path fill="none" stroke="black" d="M308.669,-362.155C301.202,-350.276 290.781,-333.697 283.318,-321.824"/>
</g>
<!-- 5 in 3 -->
<g id="node19" class="node"><title>5 in 3</title>
<ellipse fill="lawngreen" stroke="lawngreen" cx="328" cy="-306" rx="18" ry="18"/>
<text text-anchor="middle" x="328" y="-302.3" font-family="Times,serif" font-size="14.00">5</text>
</g>
<!-- 2 in 3&#45;&gt;5 in 3 -->
<g id="edge16" class="edge"><title>2 in 3&#45;&gt;5 in 3</title>
<path fill="none" stroke="black" d="M320.421,-360.055C321.97,-349.211 323.974,-335.183 325.532,-324.275"/>
</g>
<!-- 7 in 3 -->
<g id="node21" class="node"><title>7 in 3</title>
<ellipse fill="none" stroke="black" cx="426" cy="-306" rx="18" ry="18"/>
<text text-anchor="middle" x="426" y="-302.3" font-family="Times,serif" font-size="14.00">7</text>
</g>
<!-- 6 in 3&#45;&gt;7 in 3 -->
<g id="edge18" class="edge"><title>6 in 3&#45;&gt;7 in 3</title>
<path fill="none" stroke="black" d="M426,-359.697C426,-348.846 426,-334.917 426,-324.104"/>
</g>
<!-- 4 in 4 -->
<g id="node22" class="node"><title>4 in 4</title>
<ellipse fill="blue" stroke="blue" cx="480" cy="-450" rx="18" ry="18"/>
<text text-anchor="middle" x="480" y="-446.3" font-family="Times,serif" font-size="14.00">4</text>
</g>
<!-- 3 in 4 -->
<g id="node25" class="node"><title>3 in 4</title>
<ellipse fill="lawngreen" stroke="lawngreen" cx="480" cy="-378" rx="18" ry="18"/>
<text text-anchor="middle" x="480" y="-374.3" font-family="Times,serif" font-size="14.00">3</text>
</g>
<!-- 4 in 4&#45;&gt;3 in 4 -->
<g id="edge21" class="edge"><title>4 in 4&#45;&gt;3 in 4</title>
<path fill="none" stroke="black" d="M480,-431.697C480,-420.846 480,-406.917 480,-396.104"/>
</g>
<!-- 1 in 4 -->
<g id="node23" class="node"><title>1 in 4</title>
<ellipse fill="lawngreen" stroke="lawngreen" cx="480" cy="-234" rx="18" ry="18"/>
<text text-anchor="middle" x="480" y="-230.3" font-family="Times,serif" font-size="14.00">1</text>
</g>
<!-- 5 in 4 -->
<g id="node26" class="node"><title>5 in 4</title>
<ellipse fill="lawngreen" stroke="lawngreen" cx="480" cy="-162" rx="18" ry="18"/>
<text text-anchor="middle" x="480" y="-158.3" font-family="Times,serif" font-size="14.00">5</text>
</g>
<!-- 1 in 4&#45;&gt;5 in 4 -->
<g id="edge22" class="edge"><title>1 in 4&#45;&gt;5 in 4</title>
<path fill="none" stroke="black" d="M480,-215.697C480,-204.846 480,-190.917 480,-180.104"/>
</g>
<!-- 2 in 4 -->
<g id="node24" class="node"><title>2 in 4</title>
<ellipse fill="lawngreen" stroke="lawngreen" cx="480" cy="-306" rx="18" ry="18"/>
<text text-anchor="middle" x="480" y="-302.3" font-family="Times,serif" font-size="14.00">2</text>
</g>
<!-- 2 in 4&#45;&gt;1 in 4 -->
<g id="edge19" class="edge"><title>2 in 4&#45;&gt;1 in 4</title>
<path fill="none" stroke="black" d="M480,-287.697C480,-276.846 480,-262.917 480,-252.104"/>
</g>
<!-- 3 in 4&#45;&gt;2 in 4 -->
<g id="edge20" class="edge"><title>3 in 4&#45;&gt;2 in 4</title>
<path fill="none" stroke="black" d="M480,-359.697C480,-348.846 480,-334.917 480,-324.104"/>
</g>
<!-- 6 in 4 -->
<g id="node27" class="node"><title>6 in 4</title>
<ellipse fill="none" stroke="black" cx="480" cy="-90" rx="18" ry="18"/>
<text text-anchor="middle" x="480" y="-86.3" font-family="Times,serif" font-size="14.00">6</text>
</g>
<!-- 5 in 4&#45;&gt;6 in 4 -->
<g id="edge23" class="edge"><title>5 in 4&#45;&gt;6 in 4</title>
<path fill="none" stroke="black" d="M480,-143.697C480,-132.846 480,-118.917 480,-108.104"/>
</g>
<!-- 7 in 4 -->
<g id="node28" class="node"><title>7 in 4</title>
<ellipse fill="none" stroke="black" cx="480" cy="-18" rx="18" ry="18"/>
<text text-anchor="middle" x="480" y="-14.3" font-family="Times,serif" font-size="14.00">7</text>
</g>
<!-- 6 in 4&#45;&gt;7 in 4 -->
<g id="edge24" class="edge"><title>6 in 4&#45;&gt;7 in 4</title>
<path fill="none" stroke="black" d="M480,-71.6966C480,-60.8463 480,-46.9167 480,-36.1043"/>
</g>
<!-- 5 in 5 -->
<g id="node29" class="node"><title>5 in 5</title>
<ellipse fill="lawngreen" stroke="lawngreen" cx="561" cy="-450" rx="18" ry="18"/>
<text text-anchor="middle" x="561" y="-446.3" font-family="Times,serif" font-size="14.00">5</text>
</g>
<!-- 2 in 5 -->
<g id="node32" class="node"><title>2 in 5</title>
<ellipse fill="lawngreen" stroke="lawngreen" cx="561" cy="-378" rx="18" ry="18"/>
<text text-anchor="middle" x="561" y="-374.3" font-family="Times,serif" font-size="14.00">2</text>
</g>
<!-- 5 in 5&#45;&gt;2 in 5 -->
<g id="edge26" class="edge"><title>5 in 5&#45;&gt;2 in 5</title>
<path fill="none" stroke="black" d="M561,-431.697C561,-420.846 561,-406.917 561,-396.104"/>
</g>
<!-- 1 in 5 -->
<g id="node30" class="node"><title>1 in 5</title>
<ellipse fill="lawngreen" stroke="lawngreen" cx="561" cy="-234" rx="18" ry="18"/>
<text text-anchor="middle" x="561" y="-230.3" font-family="Times,serif" font-size="14.00">1</text>
</g>
<!-- 4 in 5 -->
<g id="node33" class="node"><title>4 in 5</title>
<ellipse fill="none" stroke="black" cx="534" cy="-162" rx="18" ry="18"/>
<text text-anchor="middle" x="534" y="-158.3" font-family="Times,serif" font-size="14.00">4</text>
</g>
<!-- 1 in 5&#45;&gt;4 in 5 -->
<g id="edge28" class="edge"><title>1 in 5&#45;&gt;4 in 5</title>
<path fill="none" stroke="black" d="M554.738,-216.765C550.376,-205.456 544.583,-190.437 540.228,-179.147"/>
</g>
<!-- 6 in 5 -->
<g id="node34" class="node"><title>6 in 5</title>
<ellipse fill="none" stroke="black" cx="588" cy="-162" rx="18" ry="18"/>
<text text-anchor="middle" x="588" y="-158.3" font-family="Times,serif" font-size="14.00">6</text>
</g>
<!-- 1 in 5&#45;&gt;6 in 5 -->
<g id="edge29" class="edge"><title>1 in 5&#45;&gt;6 in 5</title>
<path fill="none" stroke="black" d="M567.262,-216.765C571.624,-205.456 577.417,-190.437 581.772,-179.147"/>
</g>
<!-- 3 in 5 -->
<g id="node31" class="node"><title>3 in 5</title>
<ellipse fill="lawngreen" stroke="lawngreen" cx="561" cy="-306" rx="18" ry="18"/>
<text text-anchor="middle" x="561" y="-302.3" font-family="Times,serif" font-size="14.00">3</text>
</g>
<!-- 3 in 5&#45;&gt;1 in 5 -->
<g id="edge25" class="edge"><title>3 in 5&#45;&gt;1 in 5</title>
<path fill="none" stroke="black" d="M561,-287.697C561,-276.846 561,-262.917 561,-252.104"/>
</g>
<!-- 2 in 5&#45;&gt;3 in 5 -->
<g id="edge27" class="edge"><title>2 in 5&#45;&gt;3 in 5</title>
<path fill="none" stroke="black" d="M561,-359.697C561,-348.846 561,-334.917 561,-324.104"/>
</g>
<!-- 7 in 5 -->
<g id="node35" class="node"><title>7 in 5</title>
<ellipse fill="none" stroke="black" cx="588" cy="-90" rx="18" ry="18"/>
<text text-anchor="middle" x="588" y="-86.3" font-family="Times,serif" font-size="14.00">7</text>
</g>
<!-- 6 in 5&#45;&gt;7 in 5 -->
<g id="edge30" class="edge"><title>6 in 5&#45;&gt;7 in 5</title>
<path fill="none" stroke="black" d="M588,-143.697C588,-132.846 588,-118.917 588,-108.104"/>
</g>
<!-- 6 in 6 -->
<g id="node36" class="node"><title>6 in 6</title>
<ellipse fill="none" stroke="black" cx="669" cy="-450" rx="18" ry="18"/>
<text text-anchor="middle" x="669" y="-446.3" font-family="Times,serif" font-size="14.00">6</text>
</g>
<!-- 3 in 6 -->
<g id="node39" class="node"><title>3 in 6</title>
<ellipse fill="lawngreen" stroke="lawngreen" cx="642" cy="-378" rx="18" ry="18"/>
<text text-anchor="middle" x="642" y="-374.3" font-family="Times,serif" font-size="14.00">3</text>
</g>
<!-- 6 in 6&#45;&gt;3 in 6 -->
<g id="edge33" class="edge"><title>6 in 6&#45;&gt;3 in 6</title>
<path fill="none" stroke="black" d="M662.738,-432.765C658.376,-421.456 652.583,-406.437 648.228,-395.147"/>
</g>
<!-- 7 in 6 -->
<g id="node42" class="node"><title>7 in 6</title>
<ellipse fill="none" stroke="black" cx="696" cy="-378" rx="18" ry="18"/>
<text text-anchor="middle" x="696" y="-374.3" font-family="Times,serif" font-size="14.00">7</text>
</g>
<!-- 6 in 6&#45;&gt;7 in 6 -->
<g id="edge36" class="edge"><title>6 in 6&#45;&gt;7 in 6</title>
<path fill="none" stroke="black" d="M675.262,-432.765C679.624,-421.456 685.417,-406.437 689.772,-395.147"/>
</g>
<!-- 1 in 6 -->
<g id="node37" class="node"><title>1 in 6</title>
<ellipse fill="lawngreen" stroke="lawngreen" cx="642" cy="-234" rx="18" ry="18"/>
<text text-anchor="middle" x="642" y="-230.3" font-family="Times,serif" font-size="14.00">1</text>
</g>
<!-- 5 in 6 -->
<g id="node41" class="node"><title>5 in 6</title>
<ellipse fill="lawngreen" stroke="lawngreen" cx="642" cy="-162" rx="18" ry="18"/>
<text text-anchor="middle" x="642" y="-158.3" font-family="Times,serif" font-size="14.00">5</text>
</g>
<!-- 1 in 6&#45;&gt;5 in 6 -->
<g id="edge35" class="edge"><title>1 in 6&#45;&gt;5 in 6</title>
<path fill="none" stroke="black" d="M642,-215.697C642,-204.846 642,-190.917 642,-180.104"/>
</g>
<!-- 2 in 6 -->
<g id="node38" class="node"><title>2 in 6</title>
<ellipse fill="lawngreen" stroke="lawngreen" cx="642" cy="-306" rx="18" ry="18"/>
<text text-anchor="middle" x="642" y="-302.3" font-family="Times,serif" font-size="14.00">2</text>
</g>
<!-- 2 in 6&#45;&gt;1 in 6 -->
<g id="edge31" class="edge"><title>2 in 6&#45;&gt;1 in 6</title>
<path fill="none" stroke="black" d="M642,-287.697C642,-276.846 642,-262.917 642,-252.104"/>
</g>
<!-- 3 in 6&#45;&gt;2 in 6 -->
<g id="edge32" class="edge"><title>3 in 6&#45;&gt;2 in 6</title>
<path fill="none" stroke="black" d="M642,-359.697C642,-348.846 642,-334.917 642,-324.104"/>
</g>
<!-- 4 in 6 -->
<g id="node40" class="node"><title>4 in 6</title>
<ellipse fill="none" stroke="black" cx="642" cy="-90" rx="18" ry="18"/>
<text text-anchor="middle" x="642" y="-86.3" font-family="Times,serif" font-size="14.00">4</text>
</g>
<!-- 5 in 6&#45;&gt;4 in 6 -->
<g id="edge34" class="edge"><title>5 in 6&#45;&gt;4 in 6</title>
<path fill="none" stroke="black" d="M642,-143.697C642,-132.846 642,-118.917 642,-108.104"/>
</g>
<!-- 7 in 7 -->
<g id="node43" class="node"><title>7 in 7</title>
<ellipse fill="none" stroke="black" cx="750" cy="-450" rx="18" ry="18"/>
<text text-anchor="middle" x="750" y="-446.3" font-family="Times,serif" font-size="14.00">7</text>
</g>
<!-- 6 in 7 -->
<g id="node47" class="node"><title>6 in 7</title>
<ellipse fill="none" stroke="black" cx="750" cy="-378" rx="18" ry="18"/>
<text text-anchor="middle" x="750" y="-374.3" font-family="Times,serif" font-size="14.00">6</text>
</g>
<!-- 7 in 7&#45;&gt;6 in 7 -->
<g id="edge42" class="edge"><title>7 in 7&#45;&gt;6 in 7</title>
<path fill="none" stroke="black" d="M750,-431.697C750,-420.846 750,-406.917 750,-396.104"/>
</g>
<!-- 1 in 7 -->
<g id="node44" class="node"><title>1 in 7</title>
<ellipse fill="lawngreen" stroke="lawngreen" cx="750" cy="-162" rx="18" ry="18"/>
<text text-anchor="middle" x="750" y="-158.3" font-family="Times,serif" font-size="14.00">1</text>
</g>
<!-- 5 in 7 -->
<g id="node49" class="node"><title>5 in 7</title>
<ellipse fill="lawngreen" stroke="lawngreen" cx="750" cy="-90" rx="18" ry="18"/>
<text text-anchor="middle" x="750" y="-86.3" font-family="Times,serif" font-size="14.00">5</text>
</g>
<!-- 1 in 7&#45;&gt;5 in 7 -->
<g id="edge41" class="edge"><title>1 in 7&#45;&gt;5 in 7</title>
<path fill="none" stroke="black" d="M750,-143.697C750,-132.846 750,-118.917 750,-108.104"/>
</g>
<!-- 2 in 7 -->
<g id="node45" class="node"><title>2 in 7</title>
<ellipse fill="lawngreen" stroke="lawngreen" cx="750" cy="-234" rx="18" ry="18"/>
<text text-anchor="middle" x="750" y="-230.3" font-family="Times,serif" font-size="14.00">2</text>
</g>
<!-- 2 in 7&#45;&gt;1 in 7 -->
<g id="edge37" class="edge"><title>2 in 7&#45;&gt;1 in 7</title>
<path fill="none" stroke="black" d="M750,-215.697C750,-204.846 750,-190.917 750,-180.104"/>
</g>
<!-- 3 in 7 -->
<g id="node46" class="node"><title>3 in 7</title>
<ellipse fill="lawngreen" stroke="lawngreen" cx="750" cy="-306" rx="18" ry="18"/>
<text text-anchor="middle" x="750" y="-302.3" font-family="Times,serif" font-size="14.00">3</text>
</g>
<!-- 3 in 7&#45;&gt;2 in 7 -->
<g id="edge38" class="edge"><title>3 in 7&#45;&gt;2 in 7</title>
<path fill="none" stroke="black" d="M750,-287.697C750,-276.846 750,-262.917 750,-252.104"/>
</g>
<!-- 6 in 7&#45;&gt;3 in 7 -->
<g id="edge39" class="edge"><title>6 in 7&#45;&gt;3 in 7</title>
<path fill="none" stroke="black" d="M750,-359.697C750,-348.846 750,-334.917 750,-324.104"/>
</g>
<!-- 4 in 7 -->
<g id="node48" class="node"><title>4 in 7</title>
<ellipse fill="none" stroke="black" cx="750" cy="-18" rx="18" ry="18"/>
<text text-anchor="middle" x="750" y="-14.3" font-family="Times,serif" font-size="14.00">4</text>
</g>
<!-- 5 in 7&#45;&gt;4 in 7 -->
<g id="edge40" class="edge"><title>5 in 7&#45;&gt;4 in 7</title>
<path fill="none" stroke="black" d="M750,-71.6966C750,-60.8463 750,-46.9167 750,-36.1043"/>
</g>
</g>
</svg>
