<?xml version="1.0" encoding="UTF-8" standalone="no"?>
<!DOCTYPE svg PUBLIC "-//W3C//DTD SVG 1.1//EN"
 "http://www.w3.org/Graphics/SVG/1.1/DTD/svg11.dtd">
<!-- Generated by graphviz version 2.36.0 (20140111.2315)
 -->
<!-- Title: G Pages: 1 -->
<svg width="390pt" height="396pt"
 viewBox="0.00 0.00 390.00 396.00" xmlns="http://www.w3.org/2000/svg" xmlns:xlink="http://www.w3.org/1999/xlink">
<g id="graph0" class="graph" transform="scale(3 3) rotate(0) translate(4 128)">
<title>G</title>
<polygon fill="white" stroke="none" points="-4,4 -4,-128 126,-128 126,4 -4,4"/>
<!-- 2 -->
<g id="node1" class="node"><title>2</title>
<ellipse fill="none" stroke="black" cx="18" cy="-18" rx="18" ry="18"/>
<text text-anchor="middle" x="18" y="-14.3" font-family="Times,serif" font-size="14.00">2</text>
</g>
<!-- 3 -->
<g id="node2" class="node"><title>3</title>
<ellipse fill="none" stroke="black" cx="104" cy="-18" rx="18" ry="18"/>
<text text-anchor="middle" x="104" y="-14.3" font-family="Times,serif" font-size="14.00">3</text>
</g>
<!-- 2&#45;&gt;3 -->
<g id="edge3" class="edge"><title>2&#45;&gt;3</title>
<path fill="none" stroke="black" stroke-dasharray="1,5" d="M36.2384,-18C50.8329,-18 71.2004,-18 85.7879,-18"/>
<text text-anchor="start" x="45" y="-25.8" font-family="Times,serif" font-size="14.00">C</text>
<text text-anchor="start" x="55" y="-25.8" font-family="Times,serif" baseline-shift="sub" font-size="14.00">23;1</text>
</g>
<!-- 1 -->
<g id="node3" class="node"><title>1</title>
<ellipse fill="none" stroke="black" cx="61" cy="-106" rx="18" ry="18"/>
<text text-anchor="middle" x="61" y="-102.3" font-family="Times,serif" font-size="14.00">1</text>
</g>
<!-- 1&#45;&gt;2 -->
<g id="edge1" class="edge"><title>1&#45;&gt;2</title>
<path fill="none" stroke="black" stroke-width="2" d="M53.3125,-89.6249C45.5339,-74.0679 33.5725,-50.1449 25.766,-34.5319"/>
<text text-anchor="start" x="44" y="-59.3" font-family="Times,serif" font-size="14.00">C</text>
<text text-anchor="start" x="54" y="-59.3" font-family="Times,serif" baseline-shift="sub" font-size="14.00">12</text>
</g>
<!-- 1&#45;&gt;3 -->
<g id="edge2" class="edge"><title>1&#45;&gt;3</title>
<path fill="none" stroke="black" stroke-width="2" d="M68.6875,-89.6249C76.4661,-74.0679 88.4275,-50.1449 96.234,-34.5319"/>
<text text-anchor="start" x="87" y="-59.3" font-family="Times,serif" font-size="14.00">C</text>
<text text-anchor="start" x="97" y="-59.3" font-family="Times,serif" baseline-shift="sub" font-size="14.00">13</text>
</g>
</g>
</svg>
